<?xml version="1.0" encoding="UTF-8"?>
<svg xmlns="http://www.w3.org/2000/svg" xmlns:xlink="http://www.w3.org/1999/xlink" width="512pt" height="512pt" viewBox="0 0 512 512" version="1.1">
<g id="surface1">
<path style=" stroke:none;fill-rule:nonzero;fill:#5B5B5B;fill-opacity:1;" d="M 465.082031 0 L 46.917969 0 C 21.332031 0 0 21.332031 0 46.917969 L 0 465.082031 C 0 490.667969 21.332031 512 46.917969 512 L 256 512 L 256 298.667969 L 192 298.667969 L 192 234.667969 L 256 234.667969 L 256 170.667969 C 256 117.332031 277.332031 85.332031 341.332031 85.332031 L 405.332031 85.332031 L 405.332031 149.332031 L 377.582031 149.332031 C 358.417969 149.332031 341.332031 166.417969 341.332031 185.582031 L 341.332031 234.667969 L 426.667969 234.667969 L 416 298.667969 L 341.332031 298.667969 L 341.332031 512 L 465.082031 512 C 490.667969 512 512 490.667969 512 465.082031 L 512 46.917969 C 512 21.332031 490.667969 0 465.082031 0 Z "/>
</g>
</svg>
