<?xml version="1.0" encoding="UTF-8"?>
<svg xmlns="http://www.w3.org/2000/svg" xmlns:xlink="http://www.w3.org/1999/xlink" width="512pt" height="512pt" viewBox="0 0 512 512" version="1.1">
<g id="surface1">
<path style=" stroke:none;fill-rule:nonzero;fill:#5B5B5B;fill-opacity:1;" d="M 170.667969 64 C 111.75 64 64 111.75 64 170.667969 L 64 341.332031 C 64 400.25 111.75 448 170.667969 448 L 341.332031 448 C 400.25 448 448 400.25 448 341.332031 L 448 170.667969 C 448 111.75 400.25 64 341.332031 64 Z M 384 106.667969 C 395.75 106.667969 405.332031 116.25 405.332031 128 C 405.332031 139.75 395.75 149.332031 384 149.332031 C 372.25 149.332031 362.667969 139.75 362.667969 128 C 362.667969 116.25 372.25 106.667969 384 106.667969 Z M 256 149.332031 C 314.917969 149.332031 362.667969 197.082031 362.667969 256 C 362.667969 314.917969 314.917969 362.667969 256 362.667969 C 197.082031 362.667969 149.332031 314.917969 149.332031 256 C 149.332031 197.082031 197.082031 149.332031 256 149.332031 Z M 256 192 C 220.667969 192 192 220.667969 192 256 C 192 291.332031 220.667969 320 256 320 C 291.332031 320 320 291.332031 320 256 C 320 220.667969 291.332031 192 256 192 Z "/>
</g>
</svg>
