<?xml version="1.0" encoding="UTF-8"?>
<svg xmlns="http://www.w3.org/2000/svg" xmlns:xlink="http://www.w3.org/1999/xlink" width="512pt" height="512pt" viewBox="0 0 512 512" version="1.1">
<g id="surface1">
<path style=" stroke:none;fill-rule:nonzero;fill:#5B5B5B;fill-opacity:1;" d="M 448 136.9375 C 433.875 143.1875 418.6875 147.4375 402.75 149.3125 C 419 139.5625 431.5 124.125 437.375 105.75 C 422.1875 114.75 405.3125 121.3125 387.375 124.875 C 373 109.5625 352.5 99.9375 329.875 99.9375 C 286.375 99.9375 251.0625 135.25 251.0625 178.75 C 251.0625 184.9375 251.75 190.9375 253.125 196.6875 C 187.625 193.4375 129.5625 162.0625 90.75 114.375 C 83.9375 126 80.0625 139.5625 80.0625 154 C 80.0625 181.3125 93.9375 205.4375 115.125 219.5625 C 102.1875 219.125 90.0625 215.625 79.4375 209.6875 C 79.4375 210.0625 79.4375 210.375 79.4375 210.6875 C 79.4375 248.875 106.5625 280.75 142.625 287.9375 C 136 289.75 129.0625 290.75 121.875 290.75 C 116.8125 290.75 111.8125 290.25 107.0625 289.3125 C 117.0625 320.625 146.1875 343.375 180.625 344.0625 C 153.6875 365.1875 119.6875 377.75 82.8125 377.75 C 76.4375 377.75 70.1875 377.375 64 376.625 C 98.875 399 140.25 412.0625 184.75 412.0625 C 329.6875 412.0625 408.9375 292 408.9375 187.875 C 408.9375 184.5 408.8125 181.0625 408.6875 177.6875 C 424.0625 166.5625 437.4375 152.6875 448 136.9375 Z "/>
</g>
</svg>
